<mxfile host="app.diagrams.net" agent="Mozilla/5.0 (Macintosh; Intel Mac OS X 10_15_7) AppleWebKit/537.36 (KHTML, like Gecko) Chrome/134.0.0.0 Safari/537.36" version="26.1.1">
  <diagram name="PÃ¡gina-1" id="zIennUyZC_HK0-jWaU2B">
    <mxGraphModel dx="1114" dy="691" grid="0" gridSize="10" guides="1" tooltips="1" connect="1" arrows="1" fold="1" page="1" pageScale="1" pageWidth="1654" pageHeight="1169" math="0" shadow="0">
      <root>
        <mxCell id="0" />
        <mxCell id="1" parent="0" />
        <mxCell id="Oj7Y6yxwKAm6ebgXdTJ5-8" value="DOCTOR" style="rounded=0;whiteSpace=wrap;html=1;fillColor=#ffe6cc;strokeColor=#d79b00;" parent="1" vertex="1">
          <mxGeometry x="226.25" y="226.5" width="105" height="61" as="geometry" />
        </mxCell>
        <mxCell id="Oj7Y6yxwKAm6ebgXdTJ5-10" value="PACIENTE" style="rounded=0;whiteSpace=wrap;html=1;fillColor=#ffe6cc;strokeColor=#d79b00;" parent="1" vertex="1">
          <mxGeometry x="815" y="228" width="95" height="58" as="geometry" />
        </mxCell>
        <mxCell id="Oj7Y6yxwKAm6ebgXdTJ5-12" value="" style="endArrow=none;html=1;rounded=0;entryX=1;entryY=0.5;entryDx=0;entryDy=0;" parent="1" target="Oj7Y6yxwKAm6ebgXdTJ5-8" edge="1">
          <mxGeometry width="50" height="50" relative="1" as="geometry">
            <mxPoint x="388" y="257" as="sourcePoint" />
            <mxPoint x="593" y="332" as="targetPoint" />
          </mxGeometry>
        </mxCell>
        <mxCell id="Oj7Y6yxwKAm6ebgXdTJ5-13" value="" style="endArrow=none;html=1;rounded=0;exitX=0;exitY=0.5;exitDx=0;exitDy=0;entryX=1;entryY=0.5;entryDx=0;entryDy=0;" parent="1" source="Oj7Y6yxwKAm6ebgXdTJ5-10" edge="1">
          <mxGeometry width="50" height="50" relative="1" as="geometry">
            <mxPoint x="698" y="255.75" as="sourcePoint" />
            <mxPoint x="553.5" y="257.0000000000001" as="targetPoint" />
          </mxGeometry>
        </mxCell>
        <mxCell id="Oj7Y6yxwKAm6ebgXdTJ5-14" value="1:N" style="text;html=1;align=center;verticalAlign=middle;whiteSpace=wrap;rounded=0;fontStyle=1" parent="1" vertex="1">
          <mxGeometry x="389" y="205" width="60" height="30" as="geometry" />
        </mxCell>
        <mxCell id="Oj7Y6yxwKAm6ebgXdTJ5-15" value="1:N" style="text;html=1;align=center;verticalAlign=middle;whiteSpace=wrap;rounded=0;fontStyle=1" parent="1" vertex="1">
          <mxGeometry x="695" y="207" width="60" height="30" as="geometry" />
        </mxCell>
        <mxCell id="Oj7Y6yxwKAm6ebgXdTJ5-16" value="0:N" style="text;html=1;align=center;verticalAlign=middle;whiteSpace=wrap;rounded=0;fontStyle=1" parent="1" vertex="1">
          <mxGeometry x="488" y="235" width="60" height="30" as="geometry" />
        </mxCell>
        <mxCell id="Oj7Y6yxwKAm6ebgXdTJ5-20" value="" style="endArrow=none;html=1;rounded=0;exitX=0.5;exitY=1;exitDx=0;exitDy=0;entryX=0.603;entryY=0.01;entryDx=0;entryDy=0;entryPerimeter=0;" parent="1" source="Oj7Y6yxwKAm6ebgXdTJ5-23" target="Oj7Y6yxwKAm6ebgXdTJ5-8" edge="1">
          <mxGeometry width="50" height="50" relative="1" as="geometry">
            <mxPoint x="253" y="315" as="sourcePoint" />
            <mxPoint x="233" y="295" as="targetPoint" />
          </mxGeometry>
        </mxCell>
        <mxCell id="Oj7Y6yxwKAm6ebgXdTJ5-21" value="" style="endArrow=none;html=1;rounded=0;fillColor=#ffe6cc;strokeColor=#d79b00;entryX=0.397;entryY=-0.006;entryDx=0;entryDy=0;entryPerimeter=0;exitX=0.5;exitY=1;exitDx=0;exitDy=0;" parent="1" source="Oj7Y6yxwKAm6ebgXdTJ5-22" target="Oj7Y6yxwKAm6ebgXdTJ5-8" edge="1">
          <mxGeometry width="50" height="50" relative="1" as="geometry">
            <mxPoint x="229" y="206" as="sourcePoint" />
            <mxPoint x="245.9849999999999" y="226.49500000000006" as="targetPoint" />
          </mxGeometry>
        </mxCell>
        <mxCell id="Oj7Y6yxwKAm6ebgXdTJ5-22" value="" style="ellipse;whiteSpace=wrap;html=1;aspect=fixed;fillColor=#ffe6cc;strokeColor=#d79b00;" parent="1" vertex="1">
          <mxGeometry x="252.75" y="197" width="10" height="10" as="geometry" />
        </mxCell>
        <mxCell id="Oj7Y6yxwKAm6ebgXdTJ5-23" value="" style="ellipse;whiteSpace=wrap;html=1;aspect=fixed;" parent="1" vertex="1">
          <mxGeometry x="294" y="197" width="10" height="10" as="geometry" />
        </mxCell>
        <mxCell id="Oj7Y6yxwKAm6ebgXdTJ5-24" value="" style="ellipse;whiteSpace=wrap;html=1;aspect=fixed;" parent="1" vertex="1">
          <mxGeometry x="252.75" y="302" width="10" height="10" as="geometry" />
        </mxCell>
        <mxCell id="Oj7Y6yxwKAm6ebgXdTJ5-25" value="" style="ellipse;whiteSpace=wrap;html=1;aspect=fixed;" parent="1" vertex="1">
          <mxGeometry x="294" y="302" width="10" height="10" as="geometry" />
        </mxCell>
        <mxCell id="Oj7Y6yxwKAm6ebgXdTJ5-27" value="" style="endArrow=none;html=1;rounded=0;entryX=0.4;entryY=1.006;entryDx=0;entryDy=0;entryPerimeter=0;" parent="1" source="Oj7Y6yxwKAm6ebgXdTJ5-24" target="Oj7Y6yxwKAm6ebgXdTJ5-8" edge="1">
          <mxGeometry width="50" height="50" relative="1" as="geometry">
            <mxPoint x="257" y="305" as="sourcePoint" />
            <mxPoint x="265" y="295" as="targetPoint" />
          </mxGeometry>
        </mxCell>
        <mxCell id="Oj7Y6yxwKAm6ebgXdTJ5-28" value="" style="endArrow=none;html=1;rounded=0;exitX=0.5;exitY=0;exitDx=0;exitDy=0;entryX=0.6;entryY=1.006;entryDx=0;entryDy=0;entryPerimeter=0;" parent="1" source="Oj7Y6yxwKAm6ebgXdTJ5-25" target="Oj7Y6yxwKAm6ebgXdTJ5-8" edge="1">
          <mxGeometry width="50" height="50" relative="1" as="geometry">
            <mxPoint x="280" y="324" as="sourcePoint" />
            <mxPoint x="277" y="305" as="targetPoint" />
          </mxGeometry>
        </mxCell>
        <mxCell id="Oj7Y6yxwKAm6ebgXdTJ5-48" value="id" style="text;html=1;align=center;verticalAlign=middle;whiteSpace=wrap;rounded=0;fontSize=10;" parent="1" vertex="1">
          <mxGeometry x="250.5" y="183" width="14.5" height="14" as="geometry" />
        </mxCell>
        <mxCell id="Oj7Y6yxwKAm6ebgXdTJ5-49" value="nombre" style="text;html=1;align=center;verticalAlign=middle;whiteSpace=wrap;rounded=0;fontSize=10;" parent="1" vertex="1">
          <mxGeometry x="248.25" y="311.52" width="14.5" height="14" as="geometry" />
        </mxCell>
        <mxCell id="Oj7Y6yxwKAm6ebgXdTJ5-51" value="especialidad" style="text;html=1;align=center;verticalAlign=middle;whiteSpace=wrap;rounded=0;fontSize=10;" parent="1" vertex="1">
          <mxGeometry x="291.75" y="183" width="14.5" height="14" as="geometry" />
        </mxCell>
        <mxCell id="Oj7Y6yxwKAm6ebgXdTJ5-52" value="formacion" style="text;html=1;align=center;verticalAlign=middle;whiteSpace=wrap;rounded=0;fontSize=10;" parent="1" vertex="1">
          <mxGeometry x="304" y="311.52" width="14.5" height="14" as="geometry" />
        </mxCell>
        <mxCell id="Oj7Y6yxwKAm6ebgXdTJ5-56" value="QUIROFANO" style="rounded=0;whiteSpace=wrap;html=1;fillColor=#ffe6cc;strokeColor=#d79b00;" parent="1" vertex="1">
          <mxGeometry x="530.75" y="228" width="101.25" height="59" as="geometry" />
        </mxCell>
        <mxCell id="Oj7Y6yxwKAm6ebgXdTJ5-57" value="" style="endArrow=none;html=1;rounded=0;exitX=0.5;exitY=0;exitDx=0;exitDy=0;entryX=0.477;entryY=0.987;entryDx=0;entryDy=0;entryPerimeter=0;" parent="1" source="Oj7Y6yxwKAm6ebgXdTJ5-60" edge="1">
          <mxGeometry width="50" height="50" relative="1" as="geometry">
            <mxPoint x="578.5" y="228" as="sourcePoint" />
            <mxPoint x="578.7962500000001" y="200.71299999999997" as="targetPoint" />
          </mxGeometry>
        </mxCell>
        <mxCell id="Oj7Y6yxwKAm6ebgXdTJ5-58" value="" style="endArrow=none;html=1;rounded=0;fillColor=#ffe6cc;strokeColor=#d79b00;entryX=0.25;entryY=0;entryDx=0;entryDy=0;exitX=0.5;exitY=1;exitDx=0;exitDy=0;" parent="1" source="Oj7Y6yxwKAm6ebgXdTJ5-59" target="Oj7Y6yxwKAm6ebgXdTJ5-56" edge="1">
          <mxGeometry width="50" height="50" relative="1" as="geometry">
            <mxPoint x="539.25" y="327.52" as="sourcePoint" />
            <mxPoint x="573.2040000000002" y="294.9955" as="targetPoint" />
          </mxGeometry>
        </mxCell>
        <mxCell id="Oj7Y6yxwKAm6ebgXdTJ5-59" value="" style="ellipse;whiteSpace=wrap;html=1;aspect=fixed;fillColor=#ffe6cc;strokeColor=#d79b00;" parent="1" vertex="1">
          <mxGeometry x="528" y="197" width="10" height="10" as="geometry" />
        </mxCell>
        <mxCell id="Oj7Y6yxwKAm6ebgXdTJ5-61" value="" style="ellipse;whiteSpace=wrap;html=1;aspect=fixed;" parent="1" vertex="1">
          <mxGeometry x="627.25" y="197" width="10" height="10" as="geometry" />
        </mxCell>
        <mxCell id="Oj7Y6yxwKAm6ebgXdTJ5-62" value="" style="endArrow=none;html=1;rounded=0;exitX=0.5;exitY=1;exitDx=0;exitDy=0;entryX=0.75;entryY=0;entryDx=0;entryDy=0;" parent="1" source="Oj7Y6yxwKAm6ebgXdTJ5-61" target="Oj7Y6yxwKAm6ebgXdTJ5-56" edge="1">
          <mxGeometry width="50" height="50" relative="1" as="geometry">
            <mxPoint x="592.25" y="327.52" as="sourcePoint" />
            <mxPoint x="583.9200000000001" y="295.384" as="targetPoint" />
          </mxGeometry>
        </mxCell>
        <mxCell id="Oj7Y6yxwKAm6ebgXdTJ5-63" value="id" style="text;html=1;align=center;verticalAlign=middle;whiteSpace=wrap;rounded=0;fontSize=10;" parent="1" vertex="1">
          <mxGeometry x="523.5" y="182.99999999999997" width="14.5" height="14" as="geometry" />
        </mxCell>
        <mxCell id="Oj7Y6yxwKAm6ebgXdTJ5-64" value="numHabit" style="text;html=1;align=center;verticalAlign=middle;whiteSpace=wrap;rounded=0;fontSize=10;" parent="1" vertex="1">
          <mxGeometry x="571.5" y="182.99999999999997" width="14.5" height="14" as="geometry" />
        </mxCell>
        <mxCell id="Oj7Y6yxwKAm6ebgXdTJ5-65" value="aparatologia" style="text;html=1;align=center;verticalAlign=middle;whiteSpace=wrap;rounded=0;fontSize=10;" parent="1" vertex="1">
          <mxGeometry x="627.25" y="183" width="14.5" height="14" as="geometry" />
        </mxCell>
        <mxCell id="Oj7Y6yxwKAm6ebgXdTJ5-66" value="OPERA" style="rhombus;whiteSpace=wrap;html=1;fillColor=#dae8fc;strokeColor=#6c8ebf;fontSize=10;" parent="1" vertex="1">
          <mxGeometry x="379" y="229.5" width="80" height="55" as="geometry" />
        </mxCell>
        <mxCell id="Oj7Y6yxwKAm6ebgXdTJ5-67" value="" style="endArrow=none;html=1;rounded=0;entryX=1;entryY=0.5;entryDx=0;entryDy=0;" parent="1" edge="1">
          <mxGeometry width="50" height="50" relative="1" as="geometry">
            <mxPoint x="530.75" y="256.83" as="sourcePoint" />
            <mxPoint x="457.75" y="256.83" as="targetPoint" />
          </mxGeometry>
        </mxCell>
        <mxCell id="Oj7Y6yxwKAm6ebgXdTJ5-68" value="1:1" style="text;html=1;align=center;verticalAlign=middle;whiteSpace=wrap;rounded=0;fontStyle=1" parent="1" vertex="1">
          <mxGeometry x="311" y="235" width="60" height="30" as="geometry" />
        </mxCell>
        <mxCell id="Oj7Y6yxwKAm6ebgXdTJ5-69" value="PARTICIPA" style="rhombus;whiteSpace=wrap;html=1;fillColor=#dae8fc;strokeColor=#6c8ebf;fontSize=10;" parent="1" vertex="1">
          <mxGeometry x="685" y="229.5" width="80" height="55" as="geometry" />
        </mxCell>
        <mxCell id="Oj7Y6yxwKAm6ebgXdTJ5-70" value="" style="endArrow=none;html=1;rounded=0;fillColor=#ffe6cc;strokeColor=#d79b00;entryX=0.25;entryY=0;entryDx=0;entryDy=0;exitX=0.5;exitY=1;exitDx=0;exitDy=0;" parent="1" source="Oj7Y6yxwKAm6ebgXdTJ5-76" target="Oj7Y6yxwKAm6ebgXdTJ5-10" edge="1">
          <mxGeometry width="50" height="50" relative="1" as="geometry">
            <mxPoint x="839" y="312" as="sourcePoint" />
            <mxPoint x="886.2040000000002" y="292.9955" as="targetPoint" />
          </mxGeometry>
        </mxCell>
        <mxCell id="Oj7Y6yxwKAm6ebgXdTJ5-74" value="nombre" style="text;html=1;align=center;verticalAlign=middle;whiteSpace=wrap;rounded=0;fontSize=10;" parent="1" vertex="1">
          <mxGeometry x="813" y="311.52" width="14.5" height="14" as="geometry" />
        </mxCell>
        <mxCell id="Oj7Y6yxwKAm6ebgXdTJ5-75" value="diagnostico" style="text;html=1;align=center;verticalAlign=middle;whiteSpace=wrap;rounded=0;fontSize=10;" parent="1" vertex="1">
          <mxGeometry x="910" y="311.52" width="14.5" height="14" as="geometry" />
        </mxCell>
        <mxCell id="Oj7Y6yxwKAm6ebgXdTJ5-76" value="" style="ellipse;whiteSpace=wrap;html=1;aspect=fixed;fillColor=#ffe6cc;strokeColor=#d79b00;" parent="1" vertex="1">
          <mxGeometry x="815" y="197" width="10" height="10" as="geometry" />
        </mxCell>
        <mxCell id="Oj7Y6yxwKAm6ebgXdTJ5-77" value="id" style="text;html=1;align=center;verticalAlign=middle;whiteSpace=wrap;rounded=0;fontSize=10;" parent="1" vertex="1">
          <mxGeometry x="812.75" y="181" width="14.5" height="14" as="geometry" />
        </mxCell>
        <mxCell id="Oj7Y6yxwKAm6ebgXdTJ5-78" value="" style="ellipse;whiteSpace=wrap;html=1;aspect=fixed;" parent="1" vertex="1">
          <mxGeometry x="857.5" y="197" width="10" height="10" as="geometry" />
        </mxCell>
        <mxCell id="Oj7Y6yxwKAm6ebgXdTJ5-79" value="" style="ellipse;whiteSpace=wrap;html=1;aspect=fixed;" parent="1" vertex="1">
          <mxGeometry x="900" y="197" width="10" height="10" as="geometry" />
        </mxCell>
        <mxCell id="Oj7Y6yxwKAm6ebgXdTJ5-83" value="telefono" style="text;html=1;align=center;verticalAlign=middle;whiteSpace=wrap;rounded=0;fontSize=10;" parent="1" vertex="1">
          <mxGeometry x="857.5" y="311.52" width="14.5" height="14" as="geometry" />
        </mxCell>
        <mxCell id="Oj7Y6yxwKAm6ebgXdTJ5-84" value="direccion" style="text;html=1;align=center;verticalAlign=middle;whiteSpace=wrap;rounded=0;fontSize=10;" parent="1" vertex="1">
          <mxGeometry x="855.25" y="181" width="14.5" height="14" as="geometry" />
        </mxCell>
        <mxCell id="Oj7Y6yxwKAm6ebgXdTJ5-86" value="prioridad" style="text;html=1;align=center;verticalAlign=middle;whiteSpace=wrap;rounded=0;fontSize=10;" parent="1" vertex="1">
          <mxGeometry x="900" y="181" width="14.5" height="14" as="geometry" />
        </mxCell>
        <mxCell id="Oj7Y6yxwKAm6ebgXdTJ5-88" value="" style="endArrow=none;html=1;rounded=0;exitX=0.5;exitY=0;exitDx=0;exitDy=0;entryX=0.477;entryY=0.987;entryDx=0;entryDy=0;entryPerimeter=0;" parent="1" source="Oj7Y6yxwKAm6ebgXdTJ5-56" target="Oj7Y6yxwKAm6ebgXdTJ5-60" edge="1">
          <mxGeometry width="50" height="50" relative="1" as="geometry">
            <mxPoint x="578.5" y="228" as="sourcePoint" />
            <mxPoint x="578.7962500000001" y="200.71299999999997" as="targetPoint" />
          </mxGeometry>
        </mxCell>
        <mxCell id="Oj7Y6yxwKAm6ebgXdTJ5-60" value="" style="ellipse;whiteSpace=wrap;html=1;aspect=fixed;" parent="1" vertex="1">
          <mxGeometry x="576.38" y="197" width="10" height="10" as="geometry" />
        </mxCell>
        <mxCell id="Oj7Y6yxwKAm6ebgXdTJ5-90" value="1:1" style="text;html=1;align=center;verticalAlign=middle;whiteSpace=wrap;rounded=0;fontStyle=1" parent="1" vertex="1">
          <mxGeometry x="773" y="235" width="60" height="30" as="geometry" />
        </mxCell>
        <mxCell id="Oj7Y6yxwKAm6ebgXdTJ5-91" value="0:N" style="text;html=1;align=center;verticalAlign=middle;whiteSpace=wrap;rounded=0;fontStyle=1" parent="1" vertex="1">
          <mxGeometry x="615" y="235" width="60" height="30" as="geometry" />
        </mxCell>
        <mxCell id="Oj7Y6yxwKAm6ebgXdTJ5-92" value="" style="endArrow=none;html=1;rounded=0;exitX=0.5;exitY=1;exitDx=0;exitDy=0;entryX=0.5;entryY=0;entryDx=0;entryDy=0;" parent="1" source="Oj7Y6yxwKAm6ebgXdTJ5-78" target="Oj7Y6yxwKAm6ebgXdTJ5-10" edge="1">
          <mxGeometry width="50" height="50" relative="1" as="geometry">
            <mxPoint x="887" y="205" as="sourcePoint" />
            <mxPoint x="862" y="226" as="targetPoint" />
          </mxGeometry>
        </mxCell>
        <mxCell id="Oj7Y6yxwKAm6ebgXdTJ5-94" value="" style="endArrow=none;html=1;rounded=0;entryX=0.75;entryY=0;entryDx=0;entryDy=0;exitX=0.5;exitY=1;exitDx=0;exitDy=0;" parent="1" source="Oj7Y6yxwKAm6ebgXdTJ5-79" target="Oj7Y6yxwKAm6ebgXdTJ5-10" edge="1">
          <mxGeometry width="50" height="50" relative="1" as="geometry">
            <mxPoint x="895" y="208" as="sourcePoint" />
            <mxPoint x="894" y="223" as="targetPoint" />
          </mxGeometry>
        </mxCell>
        <mxCell id="Oj7Y6yxwKAm6ebgXdTJ5-96" value="" style="endArrow=none;html=1;rounded=0;exitX=0.25;exitY=1;exitDx=0;exitDy=0;entryX=0;entryY=0.5;entryDx=0;entryDy=0;" parent="1" source="Oj7Y6yxwKAm6ebgXdTJ5-10" target="Oj7Y6yxwKAm6ebgXdTJ5-97" edge="1">
          <mxGeometry width="50" height="50" relative="1" as="geometry">
            <mxPoint x="833" y="293" as="sourcePoint" />
            <mxPoint x="826" y="312" as="targetPoint" />
          </mxGeometry>
        </mxCell>
        <mxCell id="Oj7Y6yxwKAm6ebgXdTJ5-97" value="" style="ellipse;whiteSpace=wrap;html=1;aspect=fixed;direction=south;" parent="1" vertex="1">
          <mxGeometry x="815" y="302" width="10" height="10" as="geometry" />
        </mxCell>
        <mxCell id="Oj7Y6yxwKAm6ebgXdTJ5-98" value="" style="endArrow=none;html=1;rounded=0;exitX=0.5;exitY=1;exitDx=0;exitDy=0;entryX=0.5;entryY=0;entryDx=0;entryDy=0;" parent="1" source="Oj7Y6yxwKAm6ebgXdTJ5-85" edge="1">
          <mxGeometry width="50" height="50" relative="1" as="geometry">
            <mxPoint x="864.64" y="286" as="sourcePoint" />
            <mxPoint x="864.64" y="307" as="targetPoint" />
          </mxGeometry>
        </mxCell>
        <mxCell id="Oj7Y6yxwKAm6ebgXdTJ5-99" value="" style="endArrow=none;html=1;rounded=0;exitX=0.5;exitY=1;exitDx=0;exitDy=0;entryX=0.5;entryY=0;entryDx=0;entryDy=0;" parent="1" target="Oj7Y6yxwKAm6ebgXdTJ5-85" edge="1">
          <mxGeometry width="50" height="50" relative="1" as="geometry">
            <mxPoint x="864.64" y="286" as="sourcePoint" />
            <mxPoint x="864.64" y="307" as="targetPoint" />
          </mxGeometry>
        </mxCell>
        <mxCell id="Oj7Y6yxwKAm6ebgXdTJ5-85" value="" style="ellipse;whiteSpace=wrap;html=1;aspect=fixed;" parent="1" vertex="1">
          <mxGeometry x="859.75" y="301.52" width="10" height="10" as="geometry" />
        </mxCell>
        <mxCell id="Oj7Y6yxwKAm6ebgXdTJ5-100" value="" style="endArrow=none;html=1;rounded=0;exitX=0.75;exitY=1;exitDx=0;exitDy=0;entryX=0.5;entryY=0;entryDx=0;entryDy=0;" parent="1" source="Oj7Y6yxwKAm6ebgXdTJ5-10" target="Oj7Y6yxwKAm6ebgXdTJ5-101" edge="1">
          <mxGeometry width="50" height="50" relative="1" as="geometry">
            <mxPoint x="899.64" y="295.52" as="sourcePoint" />
            <mxPoint x="900" y="300" as="targetPoint" />
          </mxGeometry>
        </mxCell>
        <mxCell id="Oj7Y6yxwKAm6ebgXdTJ5-101" value="" style="ellipse;whiteSpace=wrap;html=1;aspect=fixed;" parent="1" vertex="1">
          <mxGeometry x="900" y="302" width="10" height="10" as="geometry" />
        </mxCell>
        <mxCell id="Oj7Y6yxwKAm6ebgXdTJ5-102" value="&lt;font style=&quot;font-size: 11px;&quot;&gt;&lt;i&gt;&lt;b&gt;Root element&lt;/b&gt;&lt;/i&gt;&lt;/font&gt;&lt;div&gt;&lt;b&gt;&lt;font&gt;Hospital&lt;/font&gt;&lt;/b&gt;&lt;/div&gt;" style="rounded=1;whiteSpace=wrap;html=1;strokeColor=#b46504;strokeWidth=2;fillColor=#fad7ac;fontColor=light-dark(#b56503, #ededed);" parent="1" vertex="1">
          <mxGeometry x="226.25" y="416" width="120" height="60" as="geometry" />
        </mxCell>
        <mxCell id="Oj7Y6yxwKAm6ebgXdTJ5-103" value="&lt;font style=&quot;font-size: 11px;&quot;&gt;&lt;i&gt;Element&lt;/i&gt;&lt;/font&gt;&lt;div&gt;Doctores&lt;/div&gt;" style="rounded=1;whiteSpace=wrap;html=1;strokeColor=#FFC022;strokeWidth=2;" parent="1" vertex="1">
          <mxGeometry x="226.25" y="501" width="120" height="60" as="geometry" />
        </mxCell>
        <mxCell id="Oj7Y6yxwKAm6ebgXdTJ5-104" value="&lt;font style=&quot;font-size: 11px;&quot;&gt;&lt;i&gt;Element&lt;/i&gt;&lt;/font&gt;&lt;div&gt;Pacientes&lt;/div&gt;" style="rounded=1;whiteSpace=wrap;html=1;strokeColor=#FFC022;strokeWidth=2;" parent="1" vertex="1">
          <mxGeometry x="470.25" y="501" width="120" height="60" as="geometry" />
        </mxCell>
        <mxCell id="Oj7Y6yxwKAm6ebgXdTJ5-105" value="&lt;font style=&quot;font-size: 11px;&quot;&gt;&lt;i&gt;Element&lt;/i&gt;&lt;/font&gt;&lt;div&gt;QuirÃ³fanos&lt;/div&gt;" style="rounded=1;whiteSpace=wrap;html=1;strokeColor=#FFC022;strokeWidth=2;" parent="1" vertex="1">
          <mxGeometry x="705.25" y="501" width="120" height="60" as="geometry" />
        </mxCell>
        <mxCell id="Oj7Y6yxwKAm6ebgXdTJ5-106" value="&lt;font style=&quot;font-size: 11px;&quot;&gt;&lt;i&gt;Element&lt;/i&gt;&lt;/font&gt;&lt;div&gt;Doctor&lt;/div&gt;" style="rounded=1;whiteSpace=wrap;html=1;strokeColor=#FFD966;strokeWidth=2;" parent="1" vertex="1">
          <mxGeometry x="226.25" y="585" width="120" height="60" as="geometry" />
        </mxCell>
        <mxCell id="Oj7Y6yxwKAm6ebgXdTJ5-107" value="&lt;font style=&quot;font-size: 11px;&quot;&gt;&lt;i&gt;Element&lt;/i&gt;&lt;/font&gt;&lt;div&gt;Paciente&lt;/div&gt;" style="rounded=1;whiteSpace=wrap;html=1;strokeColor=#FFC022;strokeWidth=2;" parent="1" vertex="1">
          <mxGeometry x="470.25" y="585" width="120" height="60" as="geometry" />
        </mxCell>
        <mxCell id="Oj7Y6yxwKAm6ebgXdTJ5-108" value="&lt;font style=&quot;font-size: 11px;&quot;&gt;&lt;i&gt;Element&lt;/i&gt;&lt;/font&gt;&lt;div&gt;QuirÃ³fano&lt;/div&gt;" style="rounded=1;whiteSpace=wrap;html=1;strokeColor=#FFC022;strokeWidth=2;" parent="1" vertex="1">
          <mxGeometry x="707.5" y="585" width="120" height="60" as="geometry" />
        </mxCell>
        <mxCell id="Oj7Y6yxwKAm6ebgXdTJ5-109" value="&lt;font style=&quot;font-size: 8px;&quot;&gt;&lt;i style=&quot;&quot;&gt;Attribute&lt;/i&gt;&lt;/font&gt;&lt;div&gt;&lt;b&gt;Id&lt;/b&gt;&lt;/div&gt;" style="rounded=1;whiteSpace=wrap;html=1;strokeColor=#d6b656;strokeWidth=2;fillColor=#fff2cc;fontSize=10;" parent="1" vertex="1">
          <mxGeometry x="379" y="585" width="59" height="27.5" as="geometry" />
        </mxCell>
        <mxCell id="Oj7Y6yxwKAm6ebgXdTJ5-110" value="&lt;font style=&quot;color: rgb(255, 172, 19);&quot;&gt;&lt;i&gt;Element&lt;/i&gt;&lt;/font&gt;&lt;div&gt;Nombre&lt;/div&gt;" style="rounded=1;whiteSpace=wrap;html=1;strokeColor=#FFC022;strokeWidth=2;fontSize=11;" parent="1" vertex="1">
          <mxGeometry x="274.75" y="663" width="73" height="60" as="geometry" />
        </mxCell>
        <mxCell id="Oj7Y6yxwKAm6ebgXdTJ5-111" value="&lt;font style=&quot;color: rgb(255, 172, 19);&quot;&gt;&lt;i&gt;Element&lt;/i&gt;&lt;/font&gt;&lt;div&gt;Especialidad&lt;/div&gt;" style="rounded=1;whiteSpace=wrap;html=1;strokeColor=#FFC022;strokeWidth=2;fontSize=11;" parent="1" vertex="1">
          <mxGeometry x="274.75" y="739" width="73" height="60" as="geometry" />
        </mxCell>
        <mxCell id="Oj7Y6yxwKAm6ebgXdTJ5-112" value="&lt;font style=&quot;color: rgb(255, 172, 19);&quot;&gt;&lt;i&gt;Element&lt;/i&gt;&lt;/font&gt;&lt;div&gt;FormaciÃ³n&lt;/div&gt;" style="rounded=1;whiteSpace=wrap;html=1;strokeColor=#FFC022;strokeWidth=2;fontSize=11;" parent="1" vertex="1">
          <mxGeometry x="273.25" y="813" width="73" height="60" as="geometry" />
        </mxCell>
        <mxCell id="Oj7Y6yxwKAm6ebgXdTJ5-113" value="" style="endArrow=blockThin;html=1;rounded=0;exitX=0.116;exitY=0.99;exitDx=0;exitDy=0;exitPerimeter=0;entryX=0;entryY=0.5;entryDx=0;entryDy=0;endFill=0;fillColor=#fad7ac;strokeColor=#b46504;" parent="1" source="Oj7Y6yxwKAm6ebgXdTJ5-106" target="Oj7Y6yxwKAm6ebgXdTJ5-112" edge="1">
          <mxGeometry width="50" height="50" relative="1" as="geometry">
            <mxPoint x="351" y="774" as="sourcePoint" />
            <mxPoint x="401" y="724" as="targetPoint" />
            <Array as="points">
              <mxPoint x="242" y="843" />
            </Array>
          </mxGeometry>
        </mxCell>
        <mxCell id="Oj7Y6yxwKAm6ebgXdTJ5-114" value="" style="endArrow=blockThin;html=1;rounded=0;entryX=0;entryY=0.5;entryDx=0;entryDy=0;strokeColor=#b46504;align=center;verticalAlign=middle;fontFamily=Helvetica;fontSize=11;fontColor=default;labelBackgroundColor=default;endFill=0;fillColor=#fad7ac;" parent="1" target="Oj7Y6yxwKAm6ebgXdTJ5-111" edge="1">
          <mxGeometry width="50" height="50" relative="1" as="geometry">
            <mxPoint x="241" y="769" as="sourcePoint" />
            <mxPoint x="359" y="722" as="targetPoint" />
          </mxGeometry>
        </mxCell>
        <mxCell id="Oj7Y6yxwKAm6ebgXdTJ5-115" value="" style="endArrow=blockThin;html=1;rounded=0;entryX=0;entryY=0.5;entryDx=0;entryDy=0;strokeColor=#b46504;align=center;verticalAlign=middle;fontFamily=Helvetica;fontSize=11;fontColor=default;labelBackgroundColor=default;endFill=0;fillColor=#fad7ac;" parent="1" edge="1">
          <mxGeometry width="50" height="50" relative="1" as="geometry">
            <mxPoint x="240.75" y="692.83" as="sourcePoint" />
            <mxPoint x="274.75" y="692.83" as="targetPoint" />
          </mxGeometry>
        </mxCell>
        <mxCell id="Oj7Y6yxwKAm6ebgXdTJ5-116" value="" style="endArrow=blockThin;html=1;rounded=0;entryX=0;entryY=0.5;entryDx=0;entryDy=0;strokeColor=#b46504;align=center;verticalAlign=middle;fontFamily=Helvetica;fontSize=11;fontColor=default;labelBackgroundColor=default;endFill=0;fillColor=#fad7ac;exitX=1.006;exitY=0.225;exitDx=0;exitDy=0;exitPerimeter=0;" parent="1" source="Oj7Y6yxwKAm6ebgXdTJ5-106" target="Oj7Y6yxwKAm6ebgXdTJ5-109" edge="1">
          <mxGeometry width="50" height="50" relative="1" as="geometry">
            <mxPoint x="347" y="614" as="sourcePoint" />
            <mxPoint x="369" y="614.8100000000001" as="targetPoint" />
          </mxGeometry>
        </mxCell>
        <mxCell id="Oj7Y6yxwKAm6ebgXdTJ5-117" value="" style="endArrow=blockThin;html=1;rounded=0;strokeColor=#b46504;align=center;verticalAlign=middle;fontFamily=Helvetica;fontSize=11;fontColor=default;labelBackgroundColor=default;endFill=0;fillColor=#fad7ac;exitX=0.5;exitY=1;exitDx=0;exitDy=0;" parent="1" source="Oj7Y6yxwKAm6ebgXdTJ5-103" target="Oj7Y6yxwKAm6ebgXdTJ5-106" edge="1">
          <mxGeometry width="50" height="50" relative="1" as="geometry">
            <mxPoint x="288" y="561" as="sourcePoint" />
            <mxPoint x="311" y="561" as="targetPoint" />
          </mxGeometry>
        </mxCell>
        <mxCell id="Oj7Y6yxwKAm6ebgXdTJ5-118" value="" style="endArrow=blockThin;html=1;rounded=0;strokeColor=#b46504;align=center;verticalAlign=middle;fontFamily=Helvetica;fontSize=11;fontColor=default;labelBackgroundColor=default;endFill=0;fillColor=#fad7ac;exitX=0.5;exitY=1;exitDx=0;exitDy=0;" parent="1" edge="1">
          <mxGeometry width="50" height="50" relative="1" as="geometry">
            <mxPoint x="283" y="477" as="sourcePoint" />
            <mxPoint x="283" y="501" as="targetPoint" />
          </mxGeometry>
        </mxCell>
        <mxCell id="Oj7Y6yxwKAm6ebgXdTJ5-119" value="&lt;font style=&quot;font-size: 8px;&quot;&gt;&lt;i style=&quot;&quot;&gt;Attribute&lt;/i&gt;&lt;/font&gt;&lt;div&gt;&lt;b&gt;DrId&lt;/b&gt;&lt;/div&gt;" style="rounded=1;whiteSpace=wrap;html=1;strokeColor=#d6b656;strokeWidth=2;fillColor=#fff2cc;fontSize=10;" parent="1" vertex="1">
          <mxGeometry x="621" y="628.75" width="55" height="27.5" as="geometry" />
        </mxCell>
        <mxCell id="Oj7Y6yxwKAm6ebgXdTJ5-120" value="" style="endArrow=blockThin;html=1;rounded=0;entryX=0;entryY=0.5;entryDx=0;entryDy=0;strokeColor=#b46504;align=center;verticalAlign=middle;fontFamily=Helvetica;fontSize=11;fontColor=default;labelBackgroundColor=default;endFill=0;fillColor=#fad7ac;exitX=1;exitY=0.5;exitDx=0;exitDy=0;" parent="1" edge="1" target="sZnkckeqy1awkp0_fgDB-8">
          <mxGeometry width="50" height="50" relative="1" as="geometry">
            <mxPoint x="590.25" y="598.57" as="sourcePoint" />
            <mxPoint x="613.25" y="598.57" as="targetPoint" />
          </mxGeometry>
        </mxCell>
        <mxCell id="Oj7Y6yxwKAm6ebgXdTJ5-121" value="" style="endArrow=blockThin;html=1;rounded=0;strokeColor=#b46504;align=center;verticalAlign=middle;fontFamily=Helvetica;fontSize=11;fontColor=default;labelBackgroundColor=default;endFill=0;fillColor=#fad7ac;exitX=0.5;exitY=1;exitDx=0;exitDy=0;" parent="1" edge="1">
          <mxGeometry width="50" height="50" relative="1" as="geometry">
            <mxPoint x="532.8199999999999" y="560" as="sourcePoint" />
            <mxPoint x="532.8199999999999" y="584" as="targetPoint" />
          </mxGeometry>
        </mxCell>
        <mxCell id="Oj7Y6yxwKAm6ebgXdTJ5-122" value="" style="endArrow=blockThin;html=1;rounded=0;strokeColor=#b46504;align=center;verticalAlign=middle;fontFamily=Helvetica;fontSize=11;fontColor=default;labelBackgroundColor=default;endFill=0;fillColor=#fad7ac;exitX=1;exitY=0.5;exitDx=0;exitDy=0;entryX=0.5;entryY=0;entryDx=0;entryDy=0;" parent="1" source="Oj7Y6yxwKAm6ebgXdTJ5-102" target="Oj7Y6yxwKAm6ebgXdTJ5-105" edge="1">
          <mxGeometry width="50" height="50" relative="1" as="geometry">
            <mxPoint x="413" y="438" as="sourcePoint" />
            <mxPoint x="413" y="462" as="targetPoint" />
            <Array as="points">
              <mxPoint x="765" y="446" />
            </Array>
          </mxGeometry>
        </mxCell>
        <mxCell id="Oj7Y6yxwKAm6ebgXdTJ5-127" value="" style="endArrow=blockThin;html=1;rounded=0;strokeColor=#b46504;align=center;verticalAlign=middle;fontFamily=Helvetica;fontSize=11;fontColor=default;labelBackgroundColor=default;endFill=0;fillColor=#fad7ac;" parent="1" edge="1">
          <mxGeometry width="50" height="50" relative="1" as="geometry">
            <mxPoint x="533" y="446" as="sourcePoint" />
            <mxPoint x="532.81" y="501" as="targetPoint" />
          </mxGeometry>
        </mxCell>
        <mxCell id="sZnkckeqy1awkp0_fgDB-1" value="&lt;font style=&quot;color: rgb(255, 172, 19);&quot;&gt;&lt;i&gt;Element&lt;/i&gt;&lt;/font&gt;&lt;div&gt;Nombre&lt;/div&gt;" style="rounded=1;whiteSpace=wrap;html=1;strokeColor=#FFC022;strokeWidth=2;fontSize=11;" vertex="1" parent="1">
          <mxGeometry x="517.25" y="663" width="73" height="60" as="geometry" />
        </mxCell>
        <mxCell id="sZnkckeqy1awkp0_fgDB-2" value="&lt;font style=&quot;color: rgb(255, 172, 19);&quot;&gt;&lt;i&gt;Element&lt;/i&gt;&lt;/font&gt;&lt;div&gt;DiagnÃ³stico&lt;/div&gt;" style="rounded=1;whiteSpace=wrap;html=1;strokeColor=#FFC022;strokeWidth=2;fontSize=11;" vertex="1" parent="1">
          <mxGeometry x="517.25" y="739" width="73" height="60" as="geometry" />
        </mxCell>
        <mxCell id="sZnkckeqy1awkp0_fgDB-3" value="&lt;font style=&quot;color: rgb(255, 172, 19);&quot;&gt;&lt;i&gt;Element&lt;/i&gt;&lt;/font&gt;&lt;div&gt;Prioridad&lt;/div&gt;" style="rounded=1;whiteSpace=wrap;html=1;strokeColor=#FFC022;strokeWidth=2;fontSize=11;" vertex="1" parent="1">
          <mxGeometry x="517.25" y="813" width="73" height="60" as="geometry" />
        </mxCell>
        <mxCell id="sZnkckeqy1awkp0_fgDB-4" value="&lt;font style=&quot;color: rgb(255, 172, 19);&quot;&gt;&lt;i&gt;Element&lt;/i&gt;&lt;/font&gt;&lt;div&gt;InformaciÃ³n Contacto&lt;/div&gt;" style="rounded=1;whiteSpace=wrap;html=1;strokeColor=#FFC022;strokeWidth=2;fontSize=11;" vertex="1" parent="1">
          <mxGeometry x="517.25" y="890" width="73" height="60" as="geometry" />
        </mxCell>
        <mxCell id="sZnkckeqy1awkp0_fgDB-8" value="&lt;font style=&quot;font-size: 8px;&quot;&gt;&lt;i style=&quot;&quot;&gt;Attribute&lt;/i&gt;&lt;/font&gt;&lt;div&gt;&lt;b&gt;Id&lt;/b&gt;&lt;/div&gt;" style="rounded=1;whiteSpace=wrap;html=1;strokeColor=#d6b656;strokeWidth=2;fillColor=#fff2cc;fontSize=10;" vertex="1" parent="1">
          <mxGeometry x="621" y="585" width="55" height="27.5" as="geometry" />
        </mxCell>
        <mxCell id="sZnkckeqy1awkp0_fgDB-9" value="" style="endArrow=blockThin;html=1;rounded=0;strokeColor=#b46504;align=center;verticalAlign=middle;fontFamily=Helvetica;fontSize=11;fontColor=default;labelBackgroundColor=default;endFill=0;fillColor=#fad7ac;exitX=0.5;exitY=1;exitDx=0;exitDy=0;" edge="1" parent="1">
          <mxGeometry width="50" height="50" relative="1" as="geometry">
            <mxPoint x="764.9599999999999" y="561" as="sourcePoint" />
            <mxPoint x="764.9599999999999" y="585" as="targetPoint" />
          </mxGeometry>
        </mxCell>
        <mxCell id="sZnkckeqy1awkp0_fgDB-10" value="&lt;font style=&quot;font-size: 8px;&quot;&gt;&lt;i style=&quot;&quot;&gt;Attribute&lt;/i&gt;&lt;/font&gt;&lt;div&gt;&lt;b&gt;Id&lt;/b&gt;&lt;/div&gt;" style="rounded=1;whiteSpace=wrap;html=1;strokeColor=#d6b656;strokeWidth=2;fillColor=#fff2cc;fontSize=10;" vertex="1" parent="1">
          <mxGeometry x="859.5" y="585" width="55" height="27.5" as="geometry" />
        </mxCell>
        <mxCell id="sZnkckeqy1awkp0_fgDB-11" value="&lt;font style=&quot;font-size: 8px;&quot;&gt;&lt;i style=&quot;&quot;&gt;Attribute&lt;/i&gt;&lt;/font&gt;&lt;div&gt;&lt;b&gt;DrId&lt;/b&gt;&lt;/div&gt;" style="rounded=1;whiteSpace=wrap;html=1;strokeColor=#d6b656;strokeWidth=2;fillColor=#fff2cc;fontSize=10;" vertex="1" parent="1">
          <mxGeometry x="859.5" y="628.75" width="55" height="27.5" as="geometry" />
        </mxCell>
        <mxCell id="sZnkckeqy1awkp0_fgDB-12" value="&lt;font style=&quot;font-size: 8px;&quot;&gt;&lt;i style=&quot;&quot;&gt;Attribute&lt;/i&gt;&lt;/font&gt;&lt;div&gt;&lt;b&gt;PId&lt;/b&gt;&lt;/div&gt;" style="rounded=1;whiteSpace=wrap;html=1;strokeColor=#d6b656;strokeWidth=2;fillColor=#fff2cc;fontSize=10;" vertex="1" parent="1">
          <mxGeometry x="859.75" y="673" width="55" height="27.5" as="geometry" />
        </mxCell>
        <mxCell id="sZnkckeqy1awkp0_fgDB-13" value="&lt;font style=&quot;color: rgb(255, 172, 19);&quot;&gt;&lt;i&gt;Element&lt;/i&gt;&lt;/font&gt;&lt;div&gt;Numero Habitacion&lt;/div&gt;" style="rounded=1;whiteSpace=wrap;html=1;strokeColor=#FFC022;strokeWidth=2;fontSize=11;" vertex="1" parent="1">
          <mxGeometry x="752.25" y="663" width="73" height="60" as="geometry" />
        </mxCell>
        <mxCell id="sZnkckeqy1awkp0_fgDB-14" value="&lt;font style=&quot;color: rgb(255, 172, 19);&quot;&gt;&lt;i&gt;Element&lt;/i&gt;&lt;/font&gt;&lt;div&gt;AparatologÃ­a&lt;/div&gt;" style="rounded=1;whiteSpace=wrap;html=1;strokeColor=#FFC022;strokeWidth=2;fontSize=11;" vertex="1" parent="1">
          <mxGeometry x="752.25" y="739" width="73" height="60" as="geometry" />
        </mxCell>
        <mxCell id="sZnkckeqy1awkp0_fgDB-15" value="&lt;font&gt;&lt;i&gt;Element&lt;/i&gt;&lt;/font&gt;&lt;div&gt;DirecciÃ³n&lt;/div&gt;" style="rounded=1;whiteSpace=wrap;html=1;strokeColor=#d79b00;strokeWidth=2;fillColor=#ffe6cc;fontColor=default;fontSize=11;" vertex="1" parent="1">
          <mxGeometry x="559" y="965" width="73" height="60" as="geometry" />
        </mxCell>
        <mxCell id="sZnkckeqy1awkp0_fgDB-16" value="&lt;font&gt;&lt;i&gt;Element&lt;/i&gt;&lt;/font&gt;&lt;div&gt;TelÃ©fono&lt;/div&gt;" style="rounded=1;whiteSpace=wrap;html=1;strokeColor=#d79b00;strokeWidth=2;fillColor=#ffe6cc;fontColor=default;fontSize=11;" vertex="1" parent="1">
          <mxGeometry x="559" y="1038" width="73" height="60" as="geometry" />
        </mxCell>
        <mxCell id="sZnkckeqy1awkp0_fgDB-17" value="&lt;font&gt;&lt;i&gt;Element&lt;/i&gt;&lt;/font&gt;&lt;div&gt;AparatologÃ­a&lt;/div&gt;" style="rounded=1;whiteSpace=wrap;html=1;strokeColor=#d79b00;strokeWidth=2;fillColor=#ffe6cc;fontSize=11;" vertex="1" parent="1">
          <mxGeometry x="786.75" y="813" width="73" height="60" as="geometry" />
        </mxCell>
        <mxCell id="sZnkckeqy1awkp0_fgDB-18" value="" style="endArrow=blockThin;html=1;rounded=0;exitX=0.116;exitY=0.99;exitDx=0;exitDy=0;exitPerimeter=0;entryX=0;entryY=0.5;entryDx=0;entryDy=0;endFill=0;fillColor=#fad7ac;strokeColor=#b46504;" edge="1" parent="1" target="sZnkckeqy1awkp0_fgDB-4">
          <mxGeometry width="50" height="50" relative="1" as="geometry">
            <mxPoint x="484.25" y="645" as="sourcePoint" />
            <mxPoint x="517.25" y="844" as="targetPoint" />
            <Array as="points">
              <mxPoint x="486" y="920" />
            </Array>
          </mxGeometry>
        </mxCell>
        <mxCell id="sZnkckeqy1awkp0_fgDB-19" value="" style="endArrow=blockThin;html=1;rounded=0;entryX=0;entryY=0.5;entryDx=0;entryDy=0;strokeColor=#b46504;align=center;verticalAlign=middle;fontFamily=Helvetica;fontSize=11;fontColor=default;labelBackgroundColor=default;endFill=0;fillColor=#fad7ac;" edge="1" parent="1">
          <mxGeometry width="50" height="50" relative="1" as="geometry">
            <mxPoint x="485" y="768.76" as="sourcePoint" />
            <mxPoint x="517.25" y="768.76" as="targetPoint" />
          </mxGeometry>
        </mxCell>
        <mxCell id="sZnkckeqy1awkp0_fgDB-20" value="" style="endArrow=blockThin;html=1;rounded=0;entryX=0;entryY=0.5;entryDx=0;entryDy=0;strokeColor=#b46504;align=center;verticalAlign=middle;fontFamily=Helvetica;fontSize=11;fontColor=default;labelBackgroundColor=default;endFill=0;fillColor=#fad7ac;" edge="1" parent="1">
          <mxGeometry width="50" height="50" relative="1" as="geometry">
            <mxPoint x="485" y="692.76" as="sourcePoint" />
            <mxPoint x="517.25" y="692.76" as="targetPoint" />
          </mxGeometry>
        </mxCell>
        <mxCell id="sZnkckeqy1awkp0_fgDB-21" value="" style="endArrow=blockThin;html=1;rounded=0;entryX=0;entryY=0.5;entryDx=0;entryDy=0;strokeColor=#b46504;align=center;verticalAlign=middle;fontFamily=Helvetica;fontSize=11;fontColor=default;labelBackgroundColor=default;endFill=0;fillColor=#fad7ac;" edge="1" parent="1">
          <mxGeometry width="50" height="50" relative="1" as="geometry">
            <mxPoint x="486" y="842.95" as="sourcePoint" />
            <mxPoint x="517.25" y="842.95" as="targetPoint" />
          </mxGeometry>
        </mxCell>
        <mxCell id="sZnkckeqy1awkp0_fgDB-22" value="" style="endArrow=blockThin;html=1;rounded=0;exitX=0.116;exitY=0.99;exitDx=0;exitDy=0;exitPerimeter=0;entryX=0;entryY=0.5;entryDx=0;entryDy=0;endFill=0;fillColor=#fad7ac;strokeColor=#b46504;" edge="1" parent="1" target="sZnkckeqy1awkp0_fgDB-16">
          <mxGeometry width="50" height="50" relative="1" as="geometry">
            <mxPoint x="530.75" y="950" as="sourcePoint" />
            <mxPoint x="563.5" y="1225" as="targetPoint" />
            <Array as="points">
              <mxPoint x="531" y="1068" />
            </Array>
          </mxGeometry>
        </mxCell>
        <mxCell id="sZnkckeqy1awkp0_fgDB-24" value="" style="endArrow=blockThin;html=1;rounded=0;entryX=0;entryY=0.5;entryDx=0;entryDy=0;strokeColor=#b46504;align=center;verticalAlign=middle;fontFamily=Helvetica;fontSize=11;fontColor=default;labelBackgroundColor=default;endFill=0;fillColor=#fad7ac;" edge="1" parent="1" target="sZnkckeqy1awkp0_fgDB-15">
          <mxGeometry width="50" height="50" relative="1" as="geometry">
            <mxPoint x="531" y="995" as="sourcePoint" />
            <mxPoint x="547.13" y="1000" as="targetPoint" />
          </mxGeometry>
        </mxCell>
        <mxCell id="sZnkckeqy1awkp0_fgDB-25" value="" style="endArrow=blockThin;html=1;rounded=0;exitX=0.116;exitY=0.99;exitDx=0;exitDy=0;exitPerimeter=0;entryX=0;entryY=0.5;entryDx=0;entryDy=0;endFill=0;fillColor=#fad7ac;strokeColor=#b46504;" edge="1" parent="1" target="sZnkckeqy1awkp0_fgDB-14">
          <mxGeometry width="50" height="50" relative="1" as="geometry">
            <mxPoint x="722.25" y="645" as="sourcePoint" />
            <mxPoint x="755" y="920" as="targetPoint" />
            <Array as="points">
              <mxPoint x="722" y="769" />
            </Array>
          </mxGeometry>
        </mxCell>
        <mxCell id="sZnkckeqy1awkp0_fgDB-26" value="" style="endArrow=blockThin;html=1;rounded=0;entryX=0;entryY=0.5;entryDx=0;entryDy=0;strokeColor=#b46504;align=center;verticalAlign=middle;fontFamily=Helvetica;fontSize=11;fontColor=default;labelBackgroundColor=default;endFill=0;fillColor=#fad7ac;" edge="1" parent="1">
          <mxGeometry width="50" height="50" relative="1" as="geometry">
            <mxPoint x="722" y="692.9200000000001" as="sourcePoint" />
            <mxPoint x="752.25" y="692.9200000000001" as="targetPoint" />
          </mxGeometry>
        </mxCell>
        <mxCell id="sZnkckeqy1awkp0_fgDB-27" value="" style="endArrow=blockThin;html=1;rounded=0;endFill=0;fillColor=#fad7ac;strokeColor=#b46504;" edge="1" parent="1">
          <mxGeometry width="50" height="50" relative="1" as="geometry">
            <mxPoint x="600" y="598" as="sourcePoint" />
            <mxPoint x="620" y="640" as="targetPoint" />
            <Array as="points">
              <mxPoint x="600" y="640" />
            </Array>
          </mxGeometry>
        </mxCell>
        <mxCell id="sZnkckeqy1awkp0_fgDB-28" value="" style="endArrow=blockThin;html=1;rounded=0;entryX=0;entryY=0.5;entryDx=0;entryDy=0;strokeColor=#b46504;align=center;verticalAlign=middle;fontFamily=Helvetica;fontSize=11;fontColor=default;labelBackgroundColor=default;endFill=0;fillColor=#fad7ac;exitX=1;exitY=0.5;exitDx=0;exitDy=0;" edge="1" parent="1">
          <mxGeometry width="50" height="50" relative="1" as="geometry">
            <mxPoint x="827.5" y="598.5300000000001" as="sourcePoint" />
            <mxPoint x="858.25" y="598.96" as="targetPoint" />
          </mxGeometry>
        </mxCell>
        <mxCell id="sZnkckeqy1awkp0_fgDB-29" value="" style="endArrow=blockThin;html=1;rounded=0;endFill=0;fillColor=#fad7ac;strokeColor=#b46504;" edge="1" parent="1">
          <mxGeometry width="50" height="50" relative="1" as="geometry">
            <mxPoint x="840" y="599" as="sourcePoint" />
            <mxPoint x="859.75" y="687" as="targetPoint" />
            <Array as="points">
              <mxPoint x="839.75" y="687" />
            </Array>
          </mxGeometry>
        </mxCell>
        <mxCell id="sZnkckeqy1awkp0_fgDB-30" value="" style="endArrow=blockThin;html=1;rounded=0;entryX=0;entryY=0.5;entryDx=0;entryDy=0;strokeColor=#b46504;align=center;verticalAlign=middle;fontFamily=Helvetica;fontSize=11;fontColor=default;labelBackgroundColor=default;endFill=0;fillColor=#fad7ac;exitX=1;exitY=0.5;exitDx=0;exitDy=0;" edge="1" parent="1">
          <mxGeometry width="50" height="50" relative="1" as="geometry">
            <mxPoint x="840" y="643" as="sourcePoint" />
            <mxPoint x="858.25" y="643" as="targetPoint" />
          </mxGeometry>
        </mxCell>
        <mxCell id="sZnkckeqy1awkp0_fgDB-31" value="" style="endArrow=blockThin;html=1;rounded=0;endFill=0;fillColor=#fad7ac;strokeColor=#b46504;exitX=0.25;exitY=1;exitDx=0;exitDy=0;entryX=-0.017;entryY=0.503;entryDx=0;entryDy=0;entryPerimeter=0;" edge="1" parent="1" target="sZnkckeqy1awkp0_fgDB-17">
          <mxGeometry width="50" height="50" relative="1" as="geometry">
            <mxPoint x="765.5" y="799" as="sourcePoint" />
            <mxPoint x="781.75" y="843" as="targetPoint" />
            <Array as="points">
              <mxPoint x="765" y="843" />
            </Array>
          </mxGeometry>
        </mxCell>
      </root>
    </mxGraphModel>
  </diagram>
</mxfile>
